<svg width="23" height="21" viewBox="0 0 23 21" fill="none" xmlns="http://www.w3.org/2000/svg">
<path fill-rule="evenodd" clip-rule="evenodd" d="M10.548 0.406555C10.7215 0.478561 10.8791 0.584095 11.0118 0.71711C11.1448 0.84979 11.2503 1.00741 11.3223 1.18094C11.3943 1.35446 11.4314 1.54049 11.4314 1.72837C11.4314 1.91624 11.3943 2.10227 11.3223 2.2758C11.2503 2.44933 11.1448 2.60695 11.0118 2.73963L4.87905 8.87004H21.4271C21.806 8.87004 22.1693 9.02053 22.4371 9.28839C22.705 9.55625 22.8555 9.91955 22.8555 10.2984C22.8555 10.6772 22.705 11.0405 22.4371 11.3084C22.1693 11.5762 21.806 11.7267 21.4271 11.7267H4.87909L11.0118 17.8571C11.28 18.1253 11.4307 18.489 11.4307 18.8683C11.4307 19.2476 11.28 19.6114 11.0118 19.8796C10.7436 20.1478 10.3798 20.2985 10.0005 20.2985C9.62123 20.2985 9.25746 20.1478 8.98926 19.8796L0.419283 11.3096C0.286266 11.1769 0.180735 11.0193 0.108728 10.8458C0.0367222 10.6723 -0.000343323 10.4862 -0.000343323 10.2983C-0.000343323 10.1105 0.0367222 9.92444 0.108728 9.75092C0.180735 9.57739 0.286266 9.41977 0.419283 9.28709L8.98926 0.71711C9.12194 0.584095 9.27956 0.478561 9.45309 0.406555C9.62662 0.334549 9.81265 0.297485 10.0005 0.297485C10.1884 0.297485 10.3744 0.334549 10.548 0.406555Z" fill="white"/>
</svg>
