<svg width="23" height="21" viewBox="0 0 23 21" fill="none" xmlns="http://www.w3.org/2000/svg">
<path fill-rule="evenodd" clip-rule="evenodd" d="M12.4335 0.91333C12.26 0.985336 12.1023 1.09087 11.9697 1.22389C11.8367 1.35656 11.7311 1.51418 11.6591 1.68771C11.5871 1.86124 11.55 2.04727 11.55 2.23514C11.55 2.42302 11.5871 2.60905 11.6591 2.78258C11.7311 2.9561 11.8367 3.11372 11.9697 3.2464L18.1024 9.37682H1.55431C1.17549 9.37682 0.812189 9.5273 0.544325 9.79516C0.276461 10.063 0.125977 10.4263 0.125977 10.8051C0.125977 11.184 0.276461 11.5473 0.544325 11.8151C0.812189 12.083 1.17549 12.2335 1.55431 12.2335H18.1024L11.9697 18.3638C11.7015 18.632 11.5508 18.9958 11.5508 19.3751C11.5508 19.7544 11.7015 20.1182 11.9697 20.3864C12.2379 20.6546 12.6016 20.8052 12.9809 20.8052C13.3602 20.8052 13.724 20.6546 13.9922 20.3864L22.5622 11.8164C22.6952 11.6837 22.8007 11.5261 22.8727 11.3526C22.9447 11.179 22.9818 10.993 22.9818 10.8051C22.9818 10.6172 22.9447 10.4312 22.8727 10.2577C22.8007 10.0842 22.6952 9.92655 22.5622 9.79387L13.9922 1.22389C13.8595 1.09087 13.7019 0.985336 13.5284 0.91333C13.3548 0.841324 13.1688 0.80426 12.9809 0.80426C12.793 0.80426 12.607 0.841324 12.4335 0.91333Z" fill="#CFCFCF"/>
</svg>
