<svg width="15" height="17" viewBox="0 0 15 17" fill="none" xmlns="http://www.w3.org/2000/svg">
<path d="M7.34975 0.353149C9.87695 0.353149 11.9104 2.28498 11.9104 4.66995V5.89663C13.3288 6.32672 14.3623 7.57406 14.3623 9.06387V13.0134C14.3623 14.8578 12.7882 16.3531 10.8477 16.3531H3.87779C1.93636 16.3531 0.362305 14.8578 0.362305 13.0134V9.06387C0.362305 7.57406 1.39661 6.32672 2.81419 5.89663V4.66995C2.82256 2.28498 4.85603 0.353149 7.34975 0.353149ZM7.35812 9.46057C6.95645 9.46057 6.63009 9.77062 6.63009 10.1522V11.9171C6.63009 12.3066 6.95645 12.6167 7.35812 12.6167C7.76816 12.6167 8.09452 12.3066 8.09452 11.9171V10.1522C8.09452 9.77062 7.76816 9.46057 7.35812 9.46057ZM7.36649 1.74438C5.66774 1.74438 4.28699 3.04817 4.27862 4.65405V5.72411H10.446V4.66995C10.446 3.05612 9.06523 1.74438 7.36649 1.74438Z" fill="white"/>
</svg>
