<svg width="24" height="21" viewBox="0 0 24 21" fill="none" xmlns="http://www.w3.org/2000/svg">
<path d="M17.5742 0.429932C19.0694 0.429932 20.5078 1.02088 21.5659 2.08125C22.6252 3.13938 23.2172 4.56658 23.2172 6.06068V14.8692C23.2172 17.98 20.6862 20.4999 17.5742 20.4999H6.55914C3.44717 20.4999 0.917236 17.98 0.917236 14.8692V6.06068C0.917236 2.94983 3.43602 0.429932 6.55914 0.429932H17.5742ZM18.8353 6.22793C18.6011 6.21567 18.3781 6.29483 18.2098 6.45093L13.1822 10.4649C12.5355 11.0012 11.609 11.0012 10.9522 10.4649L5.93474 6.45093C5.58797 6.19448 5.10852 6.22793 4.81974 6.52898C4.51869 6.83003 4.48524 7.30948 4.74057 7.64398L4.88664 7.78893L9.95989 11.7472C10.5843 12.2378 11.3414 12.5054 12.1341 12.5054C12.9247 12.5054 13.6951 12.2378 14.3184 11.7472L19.3482 7.72203L19.4374 7.63283C19.7039 7.30948 19.7039 6.84118 19.4251 6.51783C19.2701 6.3517 19.0572 6.25023 18.8353 6.22793Z" fill="white" fill-opacity="0.5"/>
</svg>
