<svg width="24" height="23" viewBox="0 0 24 23" fill="none" xmlns="http://www.w3.org/2000/svg">
<path d="M18.9645 14.4228C18.2147 14.2615 17.6215 14.6097 17.0962 14.9137C16.5583 15.227 15.5355 16.0567 14.9493 15.8444C11.9476 14.6085 9.12452 11.9813 7.90244 8.9676C7.68705 8.36881 8.51291 7.3395 8.8239 6.79525C9.12567 6.26841 9.46661 5.66962 9.31111 4.91418C9.17059 4.23532 7.35303 1.92256 6.71031 1.29012C6.28645 0.872359 5.85221 0.642591 5.40646 0.605457C3.73057 0.53351 1.85887 2.76968 1.5306 3.30464C0.708201 4.44536 0.712808 5.96322 1.54442 7.80368C3.54858 12.7472 11.1287 20.2076 16.0907 22.2871C17.0064 22.7154 17.8438 22.93 18.5959 22.93C19.3319 22.93 19.9873 22.7246 20.5505 22.3173C20.9756 22.0725 23.3034 20.1078 23.2423 18.3869C23.2055 17.9483 22.9763 17.5096 22.5639 17.0849C21.9362 16.4362 19.6383 14.5644 18.9645 14.4228Z" fill="white" fill-opacity="0.5"/>
</svg>
